# xmcd
#
# Track frame offsets:
#	150
#	9750
#	18832
#	38985
#	59055
#	72315
#	91052
#	113027
#	123022
#	135207
#	147747
#	160532
#	176987
#	188247
#	205057
#	214972
#	226837
#	242650
#	252559
#	268190
#	278687
#	293437
#	311330
#	323855
#	333130
#
# Disc length: 4705 seconds
#
# Revision: 0
# Processed by: cddbd v1.5.2PL0 Copyright (c) Steve Scherf et al.
# Submitted via: EasyCDDAExtractor 8.2.3.1
#
DISCID=5f125f19
DTITLE=Various Artist -  The Best In Bluegrass cd3
DYEAR=1900
DGENRE=Bluegrass
TTITLE0=Ralph Stanley - Ralph Stanley/Travelling The Highway Home (1977)
TTITLE1=Marshall Family - The God That Never Fails (1978)
TTITLE2=Larry Sparks - John Deere Tractor (1978)
TTITLE3=Bill Grant and Delia Bell - The Rock Pile (1980)
TTITLE4=The Easter Brothers - They're Holding Up The Ladder (1980)
TTITLE5=Dave Evans - Pastures Of Plenty (1980)
TTITLE6=Dave Evans - One Loaf Of Bread (1981)
TTITLE7=Lost and Found - Harvest Time (1981)
TTITLE8=Lost and Found - Wild Mountain Flowers (1981)
TTITLE9=The McPeak Brothers - Lost River (1982)
TTITLE10=Johnny Warren - Daley's Reel (1983)
TTITLE11=Jimmy Arnold - Jesse James (1983)
TTITLE12=Bill Harrell - Reno Bound (1983)
TTITLE13=Summer Wages - Your Memory (1983)
TTITLE14=Jethro Burns and Red Rector - I Don't Love Nobody (1983)
TTITLE15=The Forbes Family - In My Robe Of White (1983)
TTITLE16=The Forbes Family - Gloryland (1983)
TTITLE17=Virginia Squires - Cold Sheets Of Rain (1984)
TTITLE18=Larry Sparks - Tennessee 1949 (1986)
TTITLE19=Bill Emerson - Sweet Dixie (1986)
TTITLE20=Larry Sparks - Don't Neglect The Rose (1987)
TTITLE21=Bill Harrell - I Saw The Master This Morning (1987) 
TTITLE22=Lary Rice - Without Mentioning Your Name (1987)
TTITLE23=The Appalachian Express - I'll Meet You In The Morning (1987)
TTITLE24=Rhonda Vincent - Goin' Gone (1988)
EXTD=
EXTT0=
EXTT1=
EXTT2=
EXTT3=
EXTT4=
EXTT5=
EXTT6=
EXTT7=
EXTT8=
EXTT9=
EXTT10=
EXTT11=
EXTT12=
EXTT13=
EXTT14=
EXTT15=
EXTT16=
EXTT17=
EXTT18=
EXTT19=
EXTT20=
EXTT21=
EXTT22=
EXTT23=
EXTT24=
PLAYORDER=
